<svg width="365" height="686" viewBox="0 0 365 686" fill="none" xmlns="http://www.w3.org/2000/svg">
<g clip-path="url(#clip0)">
<path d="M192.601 216.536C189.407 216.449 186.04 218.005 184.572 220.944C183.018 224.056 184.054 227.86 186.385 230.28C190.788 234.862 198.126 234.256 202.788 238.492C205.205 240.653 206.327 244.284 209.521 245.494C212.543 246.618 216.169 245.321 218.672 243.419C221.521 241.172 222.989 238.06 224.456 234.862C226.01 231.577 227.823 228.206 231.276 226.65C238.01 223.538 245.434 228.983 246.643 235.812C246.902 237.455 246.902 239.184 246.384 240.74C245.952 242.036 244.916 244.024 243.362 244.284C241.377 244.543 239.305 242.901 237.837 241.777C236.283 240.567 234.729 239.356 233.089 238.233C229.636 235.985 226.01 234.689 221.866 234.602C217.377 234.516 212.888 234.862 208.399 235.034C206.154 235.121 203.91 235.207 201.579 235.294C199.421 235.38 197.263 235.38 195.191 235.639C191.565 236.158 188.63 237.887 186.644 241.085C185.781 242.555 185.09 244.197 184.572 245.84C183.968 247.568 183.277 249.643 184.141 251.372C185.435 253.879 188.802 253.879 191.133 253.274C194.414 252.409 196.399 249.816 197.867 246.877C199.593 243.506 201.32 240.307 204.342 237.887C205.723 236.763 207.277 235.812 209.003 235.121C209.262 235.034 209.953 234.775 209.694 234.343C209.521 233.997 208.313 234.343 208.054 234.429C204.946 235.726 202.097 237.628 199.766 240.134C197.435 242.728 196.227 245.926 194.5 248.865C193.119 251.199 190.529 253.706 187.68 251.804C184.572 249.729 187.076 244.889 188.198 242.295C188.889 240.826 189.752 239.356 190.961 238.233C192.514 236.85 194.414 236.504 196.399 236.417C200.629 236.158 204.946 236.072 209.176 235.985C213.492 235.812 217.895 235.294 222.212 235.812C226.269 236.245 229.722 238.319 233.003 240.74C235.765 242.814 238.614 245.58 242.326 245.407C245.434 245.234 248.024 243.16 248.974 240.221C250.873 234.256 246.816 227.428 241.031 225.353C234.902 223.192 227.737 225.872 224.197 231.231C222.298 234.17 221.262 237.628 219.276 240.567C217.55 243.16 214.269 246.012 211.075 244.284C208.226 242.814 207.19 239.27 204.773 237.282C202.529 235.467 199.593 234.516 196.917 233.565C194.155 232.614 191.22 231.663 189.061 229.589C186.644 227.255 185.608 223.365 187.248 220.253C188.025 218.87 189.407 217.573 191.133 217.573C191.651 217.573 192.428 217.487 192.86 217.141C193.032 216.882 193.119 216.622 192.601 216.536Z" fill="black"/>
<path d="M252.34 0.950736C267.102 12.361 280.138 26.0188 291.015 41.146C301.893 56.1869 310.612 72.7837 316.914 90.3313C320.454 100.186 323.216 110.386 325.115 120.672C325.202 121.191 327.705 120.586 327.619 119.981C324.252 101.569 318.123 83.7617 309.663 67.0785C301.289 50.4817 290.497 35.0087 277.893 21.3509C270.728 13.6576 263.045 6.56944 254.757 0.172762C254.153 -0.345887 251.995 0.691411 252.34 0.950736Z" fill="black"/>
<path d="M326.584 121.018C319.418 114.881 311.994 109.176 304.311 103.816C300.426 101.136 296.455 98.5432 292.484 96.0364C288.771 93.7025 284.973 91.0228 280.743 89.6398C271.765 86.7007 264.168 92.9245 256.484 96.728C248.283 100.791 239.391 103.557 230.326 105.026C221.78 106.409 212.456 106.669 205.118 111.855C199.421 115.918 194.586 124.043 198.557 130.959C200.802 134.849 205.377 135.022 209.348 134.762C213.924 134.416 218.327 133.12 222.643 131.477C227.046 129.749 231.362 127.76 235.679 125.772C240.082 123.784 244.398 121.882 248.887 120.067C265.98 113.065 284.628 107.36 303.275 109.781C305.606 110.04 307.85 110.472 310.095 110.991C310.785 111.164 312.253 110.299 311.649 109.435C308.282 104.594 302.584 102.606 296.886 102.001C289.98 101.309 283.074 102.347 276.254 103.211C267.966 104.248 259.765 105.459 251.477 106.928C244.312 108.225 236.974 109.435 230.068 111.769C223.679 113.93 217.722 117.128 212.974 122.055C208.917 126.377 206.068 131.737 204.514 137.355C202.874 143.147 202.528 149.198 203.046 155.162C203.564 161.213 204.946 167.351 207.536 172.883C208.917 175.736 211.161 177.983 214.615 177.464C218.068 176.946 220.658 174.18 222.816 171.673C227.391 166.227 230.931 159.744 233.089 152.915C233.607 151.273 234.039 149.63 234.384 147.901C233.607 148.074 232.744 148.334 231.967 148.506C238.01 157.323 249.405 159.485 259.333 160.09C265.635 160.522 272.024 160.608 278.239 160.349C284.541 160.003 290.843 158.966 296.627 156.2C302.239 153.52 307.246 149.371 310.008 143.666C310.699 142.369 308.109 142.369 307.591 143.32C303.016 151.618 295.505 157.842 287.045 161.732C277.29 166.227 266.412 167.437 255.794 166.746C249.923 166.4 244.139 165.449 238.441 164.152C233.78 163.115 228.945 161.732 224.111 162.51C219.708 163.288 216.169 166.141 214.96 170.463C213.751 174.612 214.356 179.193 215.564 183.342C218.672 194.753 224.37 205.385 231.967 214.375C232.744 215.326 235.075 214.288 234.211 213.251C227.478 205.212 222.298 195.963 219.017 186.022C217.636 181.7 216.341 177.119 217.032 172.537C217.636 168.129 220.485 164.757 225.06 164.239C229.981 163.72 234.902 165.449 239.65 166.4C245.261 167.524 250.959 168.388 256.657 168.647C267.103 169.166 277.721 167.783 287.304 163.634C296.714 159.485 305.088 152.742 310.095 143.666C309.318 143.579 308.454 143.406 307.677 143.32C302.498 153.693 290.584 157.583 279.793 158.274C273.923 158.707 267.88 158.534 262.009 158.274C257.089 158.015 251.995 157.496 247.247 156.113C242.067 154.557 237.405 151.878 234.298 147.383C233.693 146.518 232.053 147.123 231.88 147.988C230.413 154.557 227.737 160.868 224.024 166.4C222.212 169.08 220.14 172.019 217.55 174.007C216.427 174.871 214.874 175.822 213.406 175.476C211.938 175.13 210.989 173.834 210.298 172.624C209.003 170.117 208.14 167.264 207.363 164.585C206.586 161.818 206.068 159.052 205.723 156.2C205.032 150.581 205.291 144.789 206.5 139.344C207.708 134.071 209.953 128.971 213.406 124.735C217.291 119.894 222.643 116.61 228.341 114.362C234.47 111.942 241.031 110.645 247.506 109.521C255.103 108.138 262.786 106.928 270.47 105.891C277.29 104.94 284.282 103.903 291.189 103.73C296.455 103.643 302.325 104.248 306.642 107.706C307.678 108.484 308.541 109.521 309.318 110.559C309.836 110.04 310.354 109.521 310.872 109.003C293.261 104.94 275.218 108.484 258.47 114.362C249.923 117.387 241.549 121.018 233.262 124.735C225.147 128.366 216.773 132.774 207.622 132.774C205.55 132.774 203.305 132.601 201.838 130.959C200.629 129.662 200.025 127.76 199.852 126.032C199.507 122.401 201.147 118.857 203.478 116.177C209.003 109.694 217.895 108.57 225.837 107.447C234.557 106.323 243.017 104.335 251.132 101.05C255.189 99.4077 259.16 97.5059 262.959 95.3449C266.585 93.3567 270.297 90.9364 274.527 90.6771C278.93 90.3313 282.901 92.7517 286.527 94.9127C290.325 97.2466 294.124 99.5805 297.836 102.087C305.347 107.101 312.598 112.46 319.591 118.079C321.318 119.549 323.13 120.932 324.857 122.401C325.548 123.266 327.706 121.969 326.584 121.018Z" fill="black"/>
<path d="M220.138 233.046C221.692 229.589 223.246 226.045 224.8 222.587C225.577 220.858 226.354 219.129 227.131 217.314C227.735 216.017 228.858 214.289 228.858 212.819C228.858 211.263 227.131 211.177 225.923 211.004C224.196 210.831 222.469 210.658 220.743 210.658C217.29 210.658 213.836 211.004 210.556 211.782C205.204 212.992 196.916 215.153 197.089 222.068C197.175 225.439 198.47 228.811 199.765 231.836C201.06 234.862 202.786 237.801 204.513 240.653C205.549 242.296 206.585 243.938 207.707 245.58C208.57 246.963 209.52 248.347 210.988 249.124C213.146 250.335 216.858 249.816 218.067 247.309C218.326 246.704 215.908 246.963 215.563 247.655C214.354 250.248 211.16 246.272 210.47 245.148C208.916 242.814 207.362 240.394 205.894 237.973C203.132 233.306 200.542 228.119 199.765 222.673C199.333 219.821 200.11 217.228 202.614 215.672C204.945 214.202 207.793 213.424 210.47 212.819C213.405 212.127 216.426 211.868 219.362 211.782C220.743 211.782 222.038 211.868 223.419 211.955C224.11 212.041 225.146 211.955 225.75 212.3C226.527 212.646 226.44 213.424 226.268 214.116C225.75 215.672 224.973 217.141 224.282 218.524C223.505 220.167 222.815 221.895 222.038 223.538C220.57 226.736 219.103 230.021 217.721 233.219C217.376 233.997 219.793 233.738 220.138 233.046Z" fill="black"/>
<path d="M220.397 233.651C217.634 242.295 214.872 251.199 215.303 260.362C215.476 264.252 216.08 269.006 218.498 272.204C219.447 273.501 220.829 274.538 222.555 274.625C224.368 274.711 226.008 273.847 227.044 272.463C229.202 269.697 230.066 265.807 229.979 262.35C229.893 258.806 228.684 255.348 226.526 252.496C225.404 251.026 224.023 249.643 222.296 249.124C220.57 248.606 218.757 249.038 217.289 249.902C213.922 251.804 212.023 255.867 210.383 259.151C208.57 263.041 207.189 267.191 206.325 271.426C205.721 274.365 205.203 277.996 207.189 280.503C209.692 283.787 214.527 281.453 217.634 280.589C222.296 279.292 226.958 278.169 231.706 277.131C236.368 276.094 241.03 275.23 245.691 274.538C250.094 273.933 254.324 273.933 258.209 276.267C261.49 278.255 264.166 281.194 266.756 283.96C269.691 287.072 272.712 289.925 276.079 292.518C279.36 295.111 282.899 297.359 286.525 299.347C287.388 299.779 288.252 300.298 289.201 300.73C290.065 301.162 291.101 301.854 292.05 301.94C293.431 302.026 294.726 300.643 295.072 299.433C295.762 297.013 293.949 294.247 291.705 293.642C288.683 292.777 285.403 294.852 284.108 297.532C283.417 298.915 283.158 300.471 283.245 302.026C283.331 302.977 285.834 302.372 285.748 301.335C285.575 299.779 286.007 298.137 286.87 296.754C287.561 295.716 288.77 294.592 290.151 295.025C292.05 295.63 293.949 299.347 291.791 300.643C292.396 300.557 293 300.471 293.604 300.471C287.561 297.704 281.863 294.247 276.77 290.011C274.266 288.023 272.022 285.775 269.777 283.528C267.705 281.367 265.72 279.119 263.389 277.218C261.144 275.403 258.727 273.847 255.878 273.155C252.511 272.291 248.972 272.636 245.605 273.155C238.44 274.279 231.274 275.748 224.195 277.477C220.57 278.342 217.03 279.379 213.491 280.416C212.109 280.848 210.814 281.021 209.778 279.897C209.001 279.033 208.656 277.909 208.483 276.786C208.052 273.933 208.915 270.908 209.606 268.141C210.469 264.857 211.678 261.658 213.145 258.633C214.44 256.04 215.994 252.668 218.584 251.112C221.347 249.47 224.023 253.014 225.231 255.089C228.08 259.929 228.339 266.499 225.49 271.426C224.8 272.636 223.936 273.76 222.469 272.896C221.26 272.204 220.397 270.908 219.793 269.611C218.411 266.585 217.98 262.955 217.807 259.67C217.548 252.495 219.275 245.407 221.347 238.578C221.864 236.936 222.382 235.207 222.9 233.565C223.159 232.441 220.656 232.7 220.397 233.651Z" fill="black"/>
<path d="M200.024 277.477C191.737 287.332 184.14 297.705 177.32 308.596C174.384 313.264 170.327 318.883 171.363 324.761C172.226 329.861 176.888 333.319 181.463 334.788C187.075 336.603 193.291 336.258 199.161 336.344C205.118 336.43 211.074 336.517 217.031 336.43C228.686 336.171 240.34 335.307 251.735 332.713C257.347 331.417 262.872 329.774 268.138 327.527C273.318 325.366 278.498 322.859 282.9 319.401C286.958 316.29 290.238 311.795 289.979 306.435C289.72 301.249 285.749 298.05 280.915 297.272C278.325 296.84 275.735 296.927 273.145 297.1C270.037 297.186 266.929 297.186 263.822 296.927C260.541 296.581 257.347 296.062 254.239 295.198C251.304 294.42 248.455 293.296 245.52 292.432C242.671 291.567 239.563 291.049 236.628 291.74C233.693 292.432 231.448 294.679 228.599 295.371C225.664 296.062 222.642 295.284 219.707 294.852C217.117 294.42 214.441 294.16 211.765 294.506C203.132 295.803 197.607 303.15 191.996 309.028C189.233 311.967 186.212 314.906 182.413 316.635C177.233 318.969 171.19 318.018 166.356 321.217C164.37 322.513 162.816 324.242 162.298 326.49C162.212 326.663 162.385 326.922 162.557 326.922C169.982 329.688 176.715 324.415 181.895 319.747C184.744 317.154 187.679 314.82 191.305 313.351C194.844 311.881 198.643 311.103 202.355 310.584C210.815 309.288 219.362 308.423 227.822 307.473C236.541 306.435 245.261 305.311 253.98 304.533C263.735 303.755 273.577 303.496 283.418 304.447C284.368 304.533 286.094 303.15 284.368 302.978C267.188 301.249 249.923 303.323 232.916 305.398C224.283 306.435 215.736 307.472 207.103 308.51C199.852 309.374 192.255 310.498 185.953 314.388C182.327 316.635 179.478 319.747 176.197 322.427C173.003 325.02 168.687 327.181 164.543 325.625C164.629 325.798 164.716 325.971 164.802 326.057C166.269 320.266 173.262 320.093 178.01 319.229C182.413 318.451 186.212 316.549 189.578 313.696C195.621 308.683 199.852 301.422 206.844 297.532C208.398 296.667 210.125 296.062 211.851 295.803C214.614 295.457 217.376 295.976 220.053 296.408C222.729 296.84 225.491 297.186 228.254 296.667C231.016 296.149 233.088 294.593 235.592 293.383C238.441 292.086 241.635 292.864 244.484 293.728C247.246 294.593 250.009 295.63 252.858 296.408C258.642 297.877 264.685 298.569 270.642 298.396C275.217 298.31 281.001 297.445 284.8 300.73C288.684 304.101 288.166 310.066 285.576 314.042C282.728 318.451 277.721 321.217 273.059 323.551C268.224 326.057 263.131 327.959 257.865 329.515C247.246 332.627 236.196 333.924 225.232 334.442C214.096 334.961 202.787 334.874 191.65 334.356C186.212 334.096 180.427 333.146 176.629 328.91C174.989 327.095 173.953 324.761 173.866 322.254C173.78 319.229 175.161 316.29 176.543 313.696C179.478 308.51 182.758 303.496 186.212 298.569C189.665 293.555 193.204 288.715 196.916 284.047C198.729 281.713 200.629 279.465 202.528 277.218C202.959 276.786 202.182 276.44 201.837 276.44C201.147 276.786 200.456 277.045 200.024 277.477Z" fill="black"/>
<path d="M230.326 307.991C227.822 317.24 229.376 327.354 234.901 335.22C236.282 337.208 238.182 339.196 238.527 341.703C238.872 344.469 237.059 347.235 235.678 349.569C233.175 353.719 230.326 357.695 227.822 361.931C223.074 369.97 220.312 378.873 225.146 387.517C229.462 395.297 236.973 401.521 244.829 405.583C252.685 409.733 261.577 411.894 270.383 411.98C279.879 412.067 289.03 409.387 297.404 405.151C306.641 400.483 314.928 394.173 323.13 387.863C330.813 381.985 338.496 375.934 345.144 368.932C352.913 360.72 358.611 351.298 361.287 340.234C362.755 334.183 363.618 327.873 364.395 321.735C365.172 315.857 365.517 309.893 363.359 304.188C363.273 303.928 362.841 303.928 362.582 303.928C357.402 304.188 355.417 308.683 353.69 312.918C351.187 318.969 348.769 325.106 346.611 331.33C342.208 343.518 338.496 355.966 335.129 368.5C328.482 393.827 323.82 419.587 320.022 445.433C316.223 471.538 313.374 497.73 310.267 523.922C307.245 550.114 304.051 576.392 299.648 602.411C297.404 615.464 294.9 628.43 291.965 641.31C289.289 652.979 285.749 665.34 288.339 677.269C288.943 680.208 290.066 683.061 291.533 685.654C291.878 686.346 293.346 685.827 293.778 685.481C301.634 678.739 302.497 667.934 301.288 658.252C300.598 652.374 299.044 646.496 297.663 640.791C295.936 633.962 294.037 627.22 292.051 620.477C284.022 593.507 274.008 567.229 263.476 541.124C258.296 528.33 253.289 515.364 247.592 502.744C242.584 491.506 236.196 480.961 226.441 473.181C217.722 466.265 207.017 461.684 195.794 461.165C184.744 460.56 173.435 463.586 164.37 469.982C159.622 473.354 155.219 477.589 154.356 483.64C153.406 489.518 154.097 495.828 155.133 501.62C157.119 513.463 161.867 524.786 168.859 534.554C170.672 537.061 172.571 539.395 174.557 541.642C174.989 542.161 176.802 541.642 176.974 541.037C179.478 530.924 176.37 520.637 171.708 511.647C167.046 502.571 160.917 494.186 154.442 486.233C151.162 482.171 147.622 478.281 143.996 474.477C140.543 470.933 137.004 467.216 132.946 464.277C129.407 461.77 125.436 459.869 121.033 459.696C116.975 459.523 112.918 460.82 109.465 462.808C101.264 467.649 96.6881 475.947 92.5443 484.159C88.4868 492.284 84.084 499.805 77.0913 505.769C65.7822 515.537 51.3652 520.896 37.8979 526.947C23.3082 533.517 8.28694 541.21 -0.259653 555.387C-0.777628 556.251 1.63959 555.992 2.07124 555.3C9.49555 543.026 21.927 535.678 34.531 529.714C47.3941 523.663 60.8614 518.822 72.6885 510.783C78.2999 506.979 83.4797 502.398 87.4508 496.952C93.1486 489.086 96.0838 479.577 101.781 471.798C107.307 464.191 116.371 458.053 125.867 462.289C130.27 464.277 133.81 467.562 137.176 470.847C140.802 474.305 144.255 477.935 147.536 481.738C154.96 490.21 161.867 499.286 167.392 509.054C172.917 518.735 177.061 529.886 174.298 541.124C175.075 540.951 175.938 540.692 176.715 540.519C168.859 531.875 162.989 521.502 159.622 510.264C157.982 504.732 156.946 499.027 156.514 493.322C156.083 487.271 155.824 480.615 159.881 475.688C167.305 466.698 179.909 462.289 191.219 462.203C202.614 462.116 213.664 466.265 222.642 473.094C232.139 480.269 238.7 490.123 243.707 500.842C249.232 512.598 253.894 524.873 258.814 536.975C268.829 561.524 278.411 586.333 286.44 611.66C290.411 624.281 294.037 636.987 296.972 649.867C299.13 659.203 300.77 670.268 296.195 679.171C295.073 681.418 293.519 683.407 291.533 685.049C292.31 684.963 293.001 684.876 293.778 684.876C287.821 673.984 289.634 661.278 292.137 649.694C294.814 637.247 297.749 624.886 299.993 612.352C304.655 587.111 307.936 561.61 310.957 536.024C313.979 510.61 316.655 485.11 320.108 459.782C323.475 434.455 327.532 409.3 333.23 384.405C338.928 359.597 346.266 335.22 356.107 311.794C356.971 309.72 358.525 305.225 361.287 305.052C361.028 304.966 360.769 304.879 360.51 304.793C362.409 309.893 362.323 315.338 361.719 320.611C361.115 325.884 360.338 331.157 359.388 336.43C357.489 346.198 353.777 355.102 347.647 362.968C341.777 370.488 334.525 376.712 327.101 382.676C319.504 388.727 311.734 394.865 303.447 400.051C295.073 405.324 286.008 409.56 276.08 410.511C267.188 411.375 258.124 409.733 250.009 406.189C242.066 402.731 234.815 397.285 229.549 390.37C226.614 386.48 224.542 382.071 224.542 377.144C224.542 372.649 226.268 368.327 228.34 364.351C230.757 359.769 233.865 355.534 236.628 351.125C237.923 349.051 239.477 346.803 240.254 344.469C241.031 342.049 240.599 339.974 239.304 337.813C237.923 335.652 236.282 333.664 235.074 331.33C233.865 328.996 232.916 326.489 232.225 323.896C230.93 318.537 231.016 313.005 232.484 307.645C233.088 306.867 230.585 307.213 230.326 307.991Z" fill="black"/>
</g>
<defs>
<clipPath id="clip0">
<rect width="365" height="686" fill="white"/>
</clipPath>
</defs>
</svg>
