<svg width="56" height="38" viewBox="0 0 56 38" fill="none" xmlns="http://www.w3.org/2000/svg">
<g clip-path="url(#clip0)">
<path d="M11.2 5.42871H18.6667L29.037 38.0001H22.8148L20.3259 31.3188H8.71111L6.22222 38.0001H0L11.2 5.42871ZM9.95556 26.7254H19.0815L14.5185 12.5276L9.95556 26.7254Z" fill="black"/>
<path d="M24.4746 5.01116L36.9191 0.835334C40.2376 -0.417413 43.1413 -0.417413 45.6302 0.417752C47.7042 1.25292 49.3635 2.92325 50.1931 5.42874C50.6079 7.09907 50.6079 8.7694 50.1931 10.4397C49.7783 12.1101 48.5339 13.3628 46.8746 14.6156C48.5339 14.198 50.6079 14.6156 51.8524 15.4507C53.5116 16.2859 54.3413 17.5386 55.1709 19.6265C56.4154 23.3848 55.5857 26.7254 52.2672 29.2309C51.0228 30.0661 49.3635 30.9013 47.2894 31.7364L34.845 35.9123L24.4746 5.01116ZM34.4302 16.2859L41.0672 14.198C42.7265 13.7804 43.9709 12.9452 44.3857 11.6925C44.8005 10.8573 45.2154 9.60456 44.8005 8.35182C44.3857 7.09907 43.5561 6.26391 42.7265 5.84632C41.482 5.42874 40.2376 5.42874 38.5783 5.84632L31.9413 7.93424L34.4302 16.2859ZM45.6302 26.7254C47.2894 26.3079 48.5339 25.4727 49.3635 24.2199C49.7783 23.3848 50.1931 22.132 49.7783 20.8793C49.3635 19.6265 48.5339 18.7914 47.7042 18.3738C46.4598 17.9562 45.2154 17.9562 43.5561 18.3738L36.0894 21.2969L38.5783 29.2309L45.6302 26.7254Z" fill="black"/>
</g>
<defs>
<clipPath id="clip0">
<rect width="56" height="38" fill="white"/>
</clipPath>
</defs>
</svg>
